<?xml version="1.0" encoding="UTF-8"?>
<svg width="700pt" height="700pt" version="1.1" viewBox="0 0 700 700" xmlns="http://www.w3.org/2000/svg" xmlns:xlink="http://www.w3.org/1999/xlink">
 <defs>
  <symbol id="f" overflow="visible">
   <path d="m38.703-2.3125c-1.9922 1.0312-4.0703 1.8086-6.2344 2.3281-2.1562 0.53125-4.4141 0.79688-6.7656 0.79688-7.0234 0-12.586-1.957-16.688-5.875-4.0938-3.9258-6.1406-9.2422-6.1406-15.953 0-6.7383 2.0469-12.066 6.1406-15.984 4.1016-3.9258 9.6641-5.8906 16.688-5.8906 2.3516 0 4.6094 0.26562 6.7656 0.79688 2.1641 0.53125 4.2422 1.3125 6.2344 2.3438v8.7188c-2.0117-1.375-3.9961-2.3789-5.9531-3.0156-1.9492-0.64453-4.0078-0.96875-6.1719-0.96875-3.875 0-6.9219 1.2461-9.1406 3.7344-2.2188 2.4805-3.3281 5.9023-3.3281 10.266 0 4.3438 1.1094 7.7617 3.3281 10.25 2.2188 2.4805 5.2656 3.7188 9.1406 3.7188 2.1641 0 4.2227-0.31641 6.1719-0.95312 1.957-0.64453 3.9414-1.6562 5.9531-3.0312z"/>
  </symbol>
  <symbol id="e" overflow="visible">
   <path d="m15.891-40.578v8.9844h10.406v7.2188h-10.406v13.406c0 1.4609 0.28906 2.4492 0.875 2.9688 0.58203 0.52344 1.7383 0.78125 3.4688 0.78125h5.1875v7.2188h-8.6562c-3.9922 0-6.8203-0.83203-8.4844-2.5-1.668-1.6641-2.5-4.4883-2.5-8.4688v-13.406h-5.0156v-7.2188h5.0156v-8.9844z"/>
  </symbol>
  <symbol id="a" overflow="visible">
   <path d="m26.344-26.969v-16.938h10.172v43.906h-10.172v-4.5781c-1.3867 1.8672-2.918 3.2305-4.5938 4.0938-1.6797 0.86328-3.6172 1.2969-5.8125 1.2969-3.8984 0-7.0938-1.5469-9.5938-4.6406s-3.75-7.0703-3.75-11.938c0-4.875 1.25-8.8594 3.75-11.953s5.6953-4.6406 9.5938-4.6406c2.1875 0 4.1172 0.4375 5.7969 1.3125 1.6875 0.875 3.2227 2.2344 4.6094 4.0781zm-6.6562 20.453c2.1641 0 3.8164-0.78516 4.9531-2.3594 1.1328-1.582 1.7031-3.8789 1.7031-6.8906 0-3.0078-0.57031-5.3047-1.7031-6.8906-1.1367-1.582-2.7891-2.375-4.9531-2.375-2.1367 0-3.7773 0.79297-4.9219 2.375-1.1367 1.5859-1.7031 3.8828-1.7031 6.8906 0 3.0117 0.56641 5.3086 1.7031 6.8906 1.1445 1.5742 2.7852 2.3594 4.9219 2.3594z"/>
  </symbol>
  <symbol id="d" overflow="visible">
   <path d="m21.672-6.5156c2.1562 0 3.8008-0.78516 4.9375-2.3594 1.1445-1.582 1.7188-3.8789 1.7188-6.8906 0-3.0078-0.57422-5.3047-1.7188-6.8906-1.1367-1.582-2.7812-2.375-4.9375-2.375-2.168 0-3.8281 0.79688-4.9844 2.3906s-1.7344 3.8867-1.7344 6.875c0 2.9922 0.57812 5.2812 1.7344 6.875 1.1562 1.5859 2.8164 2.375 4.9844 2.375zm-6.7188-20.453c1.3945-1.8438 2.9375-3.2031 4.625-4.0781 1.6953-0.875 3.6445-1.3125 5.8438-1.3125 3.8945 0 7.0938 1.5469 9.5938 4.6406s3.75 7.0781 3.75 11.953c0 4.8672-1.25 8.8438-3.75 11.938s-5.6992 4.6406-9.5938 4.6406c-2.1992 0-4.1484-0.4375-5.8438-1.3125-1.6875-0.875-3.2305-2.2344-4.625-4.0781v4.5781h-10.094v-43.906h10.094z"/>
  </symbol>
  <symbol id="c" overflow="visible">
   <path d="m30.859-7.6719h-16.984l-2.6719 7.6719h-10.922l15.609-42.125h12.938l15.609 42.125h-10.922zm-14.266-7.8125h11.531l-5.75-16.766z"/>
  </symbol>
  <symbol id="b" overflow="visible">
   <path d="m43.172-3.125c-2.7109 1.3125-5.5234 2.2969-8.4375 2.9531-2.918 0.65625-5.9297 0.98438-9.0312 0.98438-7.0234 0-12.586-1.957-16.688-5.875-4.0938-3.9258-6.1406-9.2422-6.1406-15.953 0-6.7891 2.0859-12.133 6.2656-16.031 4.1758-3.8945 9.8945-5.8438 17.156-5.8438 2.8008 0 5.4844 0.26562 8.0469 0.79688 2.5703 0.53125 4.9922 1.3125 7.2656 2.3438v8.7188c-2.3438-1.332-4.6797-2.3281-7-2.9844-2.3242-0.66406-4.6523-1-6.9844-1-4.3359 0-7.6719 1.2109-10.016 3.625-2.3359 2.418-3.5 5.875-3.5 10.375 0 4.4609 1.125 7.9023 3.375 10.328 2.2578 2.4297 5.4688 3.6406 9.625 3.6406 1.1328 0 2.1875-0.070313 3.1562-0.21875 0.96875-0.14453 1.8359-0.36328 2.6094-0.65625v-8.1875h-6.6406v-7.2812h16.938z"/>
  </symbol>
 </defs>
 <g>
  <path d="m45.648 73.051c-20.164 0-36.523-16.363-36.523-36.527 0-20.172 16.359-36.523 36.523-36.523h608.7c20.164 0 36.523 16.352 36.523 36.523 0 20.164-16.363 36.523-36.523 36.523z"/>
  <path d="m45.66 316.53c-20.188 0-36.535-16.352-36.535-36.535 0-20.164 16.352-36.523 36.523-36.523h608.69c20.164 0 36.512 16.363 36.512 36.523 0 20.176-16.352 36.523-36.512 36.523h-608.68z"/>
  <path d="m45.66 560c-20.188 0-36.535-16.363-36.535-36.535 0-20.164 16.352-36.512 36.535-36.512l608.68-0.003906c20.176 0 36.535 16.352 36.535 36.512 0 20.176-16.363 36.535-36.535 36.535z"/>
  <use x="9.125" y="733.320312" xlink:href="#f"/>
  <use x="158.183594" y="733.320312" xlink:href="#e"/>
  <use x="224.984375" y="733.320312" xlink:href="#a"/>
  <use x="286.453125" y="733.320312" xlink:href="#d"/>
  <use x="385.582031" y="733.320312" xlink:href="#c"/>
  <use x="471.425781" y="733.320312" xlink:href="#a"/>
  <use x="639.554688" y="733.320312" xlink:href="#b"/>
 </g>
</svg>
